<svg width="1280" height="832" viewBox="0 0 1280 832" fill="none" xmlns="http://www.w3.org/2000/svg">
<g clip-path="url(#clip0_88_2)">
<rect width="1280" height="832" fill="white"/>
<path fill-rule="evenodd" clip-rule="evenodd" d="M76.0541 -106.015C165.452 -110.225 265.16 -171.425 334.187 -114.461C404.191 -56.6901 398.684 55.1547 378.613 143.671C362.173 216.178 299.265 263.172 238.762 306.38C190.475 340.864 135.232 355.407 76.0541 359.744C10.2326 364.568 -57.1549 368.238 -112.39 332.115C-180.81 287.369 -245.417 224.936 -254.338 143.671C-263.926 56.3261 -228.965 -38.2663 -158.862 -91.2451C-93.7902 -140.422 -5.42011 -102.179 76.0541 -106.015Z" fill="#93C5FD"/>
<path fill-rule="evenodd" clip-rule="evenodd" d="M361.494 -109.689C428.857 -157.148 490.294 -231.95 571.897 -220.499C651.614 -209.313 678.428 -112.304 736.926 -57.0053C808.809 10.9465 944.966 36.2314 948.069 135.1C951.162 233.613 830.275 282.338 749.344 338.593C680.483 386.458 607.866 441.713 524.939 429.217C445.609 417.263 407.918 333.151 349.354 278.32C277.592 211.133 146.047 175.613 149.122 77.3566C152.188 -20.6605 281.326 -53.2091 361.494 -109.689Z" fill="#3B82F6"/>
<path fill-rule="evenodd" clip-rule="evenodd" d="M-30.6467 432.407C48.1529 442.173 77.0222 536.59 137.119 588.485C207.052 648.875 327.427 665.42 344.373 756.251C361.994 850.694 296.019 950.818 214.078 1000.98C141.612 1045.33 54.2446 982.269 -30.6467 985.812C-123.618 989.692 -227.736 1084.78 -296.689 1022.29C-365.079 960.317 -293.659 848.035 -283.97 756.251C-276.018 680.928 -292.546 600.676 -245.879 541.018C-194.408 475.217 -113.553 422.132 -30.6467 432.407Z" fill="#93C5FD"/>
<path fill-rule="evenodd" clip-rule="evenodd" d="M107.57 394.349C119.774 451.619 188.328 506.446 157.036 555.929C125.945 605.092 48.818 575.022 -9.20363 579.003C-56.6751 582.259 -103.659 597.469 -146.503 576.753C-196.639 552.511 -249.633 514.76 -256.409 459.47C-263.06 405.19 -211.74 365.482 -177.629 322.752C-146.995 284.378 -118.73 243.233 -71.9347 228.385C-18.5855 211.457 48.1919 200.052 89.2979 238.057C129.33 275.069 96.2054 341.019 107.57 394.349Z" fill="#60A5FA"/>
<path fill-rule="evenodd" clip-rule="evenodd" d="M816.696 -146.33C868.922 -201.425 913.826 -275.934 989.579 -280.887C1062.71 -285.668 1110.7 -213.414 1169.28 -169.383C1226.77 -126.168 1309.42 -100.723 1323.2 -30.1312C1337.17 41.4517 1267.95 95.9796 1233.65 160.346C1188.28 245.499 1189.03 387.429 1093.49 400.946C997.743 414.492 968.413 266.911 891.117 208.807C815.578 152.023 674.793 164.131 655.41 71.6382C636.139 -20.3243 752.055 -78.1387 816.696 -146.33Z" fill="#93C5FD"/>
<path fill-rule="evenodd" clip-rule="evenodd" d="M1069.31 483.071C1159.79 461.392 1258.8 481.316 1331.96 538.805C1413.37 602.784 1481.85 698.173 1474.45 801.452C1467.29 901.215 1369 959.729 1296.8 1028.95C1227.1 1095.77 1165.86 1190.75 1069.31 1189.86C973.078 1188.97 898.938 1105.13 845.997 1024.76C802.977 959.459 800.946 878.649 813.435 801.452C823.78 737.514 867.619 690.825 908.193 640.338C957.067 579.525 993.437 501.25 1069.31 483.071Z" fill="#93C5FD"/>
<path fill-rule="evenodd" clip-rule="evenodd" d="M329.843 810.838C227.878 832.101 99.2601 811.037 42.0866 723.973C-12.9207 640.208 88.559 538.129 84.9924 437.981C81.4625 338.864 -35.2073 239.841 21.9588 158.794C78.2952 78.9235 207.192 107.954 302.504 129.605C374.281 145.91 414.883 211.485 469.777 260.519C526.357 311.059 612.075 341.374 623.54 416.368C635.533 494.821 572.62 559.566 525.224 623.224C469.17 698.513 421.73 791.677 329.843 810.838Z" fill="#1D4ED8"/>
<path fill-rule="evenodd" clip-rule="evenodd" d="M924.417 240.184C965.611 169.904 945.997 64.7717 1016.44 23.8539C1091.71 -19.8709 1185.52 10.6577 1267.06 41.1522C1356.85 74.7348 1453.67 114.072 1492.28 201.819C1532.36 292.907 1527.04 410.963 1463.51 487.565C1405.89 557.031 1298.74 532.865 1209.09 543.271C1150.72 550.048 1097.78 545.211 1039.63 536.771C938.519 522.097 787.954 572.014 750.961 476.781C714.151 382.02 873.011 327.887 924.417 240.184Z" fill="#2563EB"/>
<path fill-rule="evenodd" clip-rule="evenodd" d="M656.822 445.322C748.176 447.929 848.26 431.161 916.382 492.086C986.764 555.032 1020.93 659.726 999.33 751.645C980.091 833.496 886.399 864.093 817.587 912.411C766.696 948.146 716.861 975.954 656.822 992.147C562.399 1017.61 456.3 1088.82 377.306 1031.16C297.829 973.152 326.48 850.037 327.315 751.645C328.14 654.554 310.9 542.946 382.013 476.836C452.215 411.574 561.01 442.588 656.822 445.322Z" fill="#3B82F6"/>
<path fill-rule="evenodd" clip-rule="evenodd" d="M760.082 199.382C810.887 161.513 843.769 102.966 905.448 88.4439C977.749 71.4208 1056.3 73.9279 1118.14 115.078C1186.96 160.876 1244.73 233.156 1247.09 315.791C1249.39 396.218 1174.55 449.331 1129.6 516.061C1073.59 599.197 1053.78 724.644 956.201 747.605C855.142 771.385 762.937 689.076 684.788 620.731C607.657 553.275 507.915 472.186 525.94 371.317C543.648 272.226 679.374 259.539 760.082 199.382Z" fill="#60A5FA"/>
</g>
<defs>
<clipPath id="clip0_88_2">
<rect width="1280" height="832" fill="white"/>
</clipPath>
</defs>
</svg>
