<svg width="50" height="50" viewBox="0 0 50 50" fill="none" xmlns="http://www.w3.org/2000/svg">
<g clip-path="url(#clip0_45_2)">
<mask id="path-1-outside-1_45_2" maskUnits="userSpaceOnUse" x="10" y="8" width="29" height="33" fill="black">
<rect fill="white" x="10" y="8" width="29" height="33"/>
<path d="M36.8 10.92V39H29.96V27.44H19.32V39H12.48V10.92H19.32V21.92H29.96V10.92H36.8Z"/>
</mask>
<path d="M36.8 10.92V39H29.96V27.44H19.32V39H12.48V10.92H19.32V21.92H29.96V10.92H36.8Z" fill="white"/>
<path d="M36.8 10.92H38.8V8.92H36.8V10.92ZM36.8 39V41H38.8V39H36.8ZM29.96 39H27.96V41H29.96V39ZM29.96 27.44H31.96V25.44H29.96V27.44ZM19.32 27.44V25.44H17.32V27.44H19.32ZM19.32 39V41H21.32V39H19.32ZM12.48 39H10.48V41H12.48V39ZM12.48 10.92V8.92H10.48V10.92H12.48ZM19.32 10.92H21.32V8.92H19.32V10.92ZM19.32 21.92H17.32V23.92H19.32V21.92ZM29.96 21.92V23.92H31.96V21.92H29.96ZM29.96 10.92V8.92H27.96V10.92H29.96ZM34.8 10.92V39H38.8V10.92H34.8ZM36.8 37H29.96V41H36.8V37ZM31.96 39V27.44H27.96V39H31.96ZM29.96 25.44H19.32V29.44H29.96V25.44ZM17.32 27.44V39H21.32V27.44H17.32ZM19.32 37H12.48V41H19.32V37ZM14.48 39V10.92H10.48V39H14.48ZM12.48 12.92H19.32V8.92H12.48V12.92ZM17.32 10.92V21.92H21.32V10.92H17.32ZM19.32 23.92H29.96V19.92H19.32V23.92ZM31.96 21.92V10.92H27.96V21.92H31.96ZM29.96 12.92H36.8V8.92H29.96V12.92Z" fill="black" mask="url(#path-1-outside-1_45_2)"/>
</g>
<defs>
<clipPath id="clip0_45_2">
<rect width="50" height="50" fill="white"/>
</clipPath>
</defs>
</svg>
