<svg width="24" height="24" viewBox="0 0 24 24" fill="none" xmlns="http://www.w3.org/2000/svg">
<g clip-path="url(#clip0_74_18)">
<path d="M18.94 8.296C15.9 6.892 11.534 6 7.42596 6.332C7.63196 4.972 8.13996 4.024 8.97396 3.824C10.122 3.549 11.374 4.304 12.568 5.678C13.35 5.78 14.278 5.958 14.923 6.107C12.747 2.013 9.82796 -0.282002 7.60696 0.564998C5.91896 1.209 5.05396 3.535 5.15896 6.659C2.95896 7.127 1.24396 7.959 0.145962 9.154C0.0899618 9.219 -0.0350382 9.381 0.00896176 9.459C0.0429618 9.517 0.154962 9.451 0.202962 9.419C1.47696 8.529 3.10696 8.046 5.22996 7.743C5.53296 11.076 6.94296 15.303 9.28496 18.695C8.00496 19.197 6.92896 19.231 6.33896 18.608C5.52696 17.752 5.55496 16.29 6.14896 14.568C5.84648 13.8291 5.57721 13.077 5.34196 12.314C2.88296 16.248 2.35596 19.924 4.19896 21.424C5.60096 22.564 8.04596 22.149 10.701 20.498C12.206 22.17 13.784 23.238 15.368 23.592C15.452 23.607 15.655 23.635 15.7 23.558C15.734 23.498 15.62 23.434 15.569 23.409C14.161 22.752 12.929 21.581 11.605 19.894C14.34 17.965 17.296 14.631 19.062 10.906C20.138 11.766 20.702 12.679 20.46 13.501C20.124 14.632 18.845 15.341 17.057 15.686C16.5675 16.3167 16.051 16.9259 15.509 17.512C20.143 17.672 23.589 16.292 23.967 13.947C24.253 12.161 22.672 10.251 19.914 8.777C20.61 6.638 20.746 4.737 20.26 3.189C20.231 3.109 20.154 2.919 20.064 2.919C19.996 2.919 19.997 3.049 20.001 3.106C20.136 4.653 19.738 6.306 18.939 8.296H18.94ZM10.407 18.165C8.44696 15.02 7.31696 11.316 7.32496 7.571C11.027 7.447 14.799 8.319 18.039 10.198C16.296 13.467 13.654 16.298 10.406 18.164L10.407 18.165Z" fill="white"/>
</g>
<defs>
<clipPath id="clip0_74_18">
<rect width="24" height="24" fill="white"/>
</clipPath>
</defs>
</svg>
