<svg width="24" height="24" viewBox="0 0 24 24" fill="none" xmlns="http://www.w3.org/2000/svg">
<g clip-path="url(#clip0_74_62)">
<path d="M0.778026 1.213C0.665834 1.21153 0.554682 1.23466 0.452388 1.28076C0.350095 1.32686 0.259145 1.39481 0.185937 1.47984C0.112729 1.56487 0.0590403 1.6649 0.0286488 1.77291C-0.00174269 1.88092 -0.00809923 1.99427 0.0100264 2.105L3.27303 21.915C3.35703 22.415 3.78803 22.783 4.29503 22.788H19.95C20.1344 22.79 20.3133 22.726 20.4546 22.6075C20.5958 22.489 20.6899 22.3239 20.72 22.142L23.99 2.112C24.008 2.00135 24.0015 1.8881 23.971 1.78022C23.9406 1.67234 23.8869 1.57243 23.8137 1.48752C23.7405 1.40261 23.6496 1.33475 23.5474 1.2887C23.4452 1.24266 23.3341 1.21955 23.222 1.221L0.778026 1.213ZM14.52 15.53H9.52203L8.17003 8.466H15.731L14.52 15.53Z" fill="white"/>
</g>
<defs>
<clipPath id="clip0_74_62">
<rect width="24" height="24" fill="white"/>
</clipPath>
</defs>
</svg>
