<svg width="24" height="24" viewBox="0 0 24 24" fill="none" xmlns="http://www.w3.org/2000/svg">
<g clip-path="url(#clip0_74_26)">
<path d="M3.53702 5.49364e-07C2.16502 5.49364e-07 1.66002 0.506001 1.66002 1.879V18.44C1.65934 18.5846 1.66601 18.7291 1.68002 18.873C1.71102 19.173 1.71702 19.463 1.99602 19.793C2.02302 19.826 2.30702 20.038 2.30702 20.038C2.46002 20.113 2.56502 20.168 2.73702 20.238L11.072 23.729C11.505 23.928 11.686 24.005 12 23.999H12.002C12.316 24.005 12.497 23.928 12.93 23.729L21.265 20.237C21.437 20.167 21.542 20.113 21.695 20.037C21.695 20.037 21.979 19.826 22.006 19.794C22.286 19.464 22.291 19.173 22.322 18.874C22.3361 18.7298 22.3427 18.5849 22.342 18.44V1.879C22.342 0.506001 21.836 -0.000999451 20.464 -0.000999451L3.53702 5.49364e-07ZM16.903 3.11H17.583C18.721 3.11 19.271 3.663 19.271 4.806V6.686H17.897V4.886C17.897 4.517 17.727 4.346 17.374 4.346H17.139C16.772 4.346 16.602 4.516 16.602 4.885V10.695C16.602 11.064 16.772 11.235 17.139 11.235H17.401C17.754 11.235 17.924 11.064 17.924 10.695V8.619H19.297V10.762C19.297 11.906 18.735 12.472 17.597 12.472H16.903C15.765 12.472 15.203 11.906 15.203 10.762V4.82C15.203 3.676 15.765 3.111 16.903 3.111V3.11ZM4.71702 3.19H7.83102V4.464H6.11702V7.067H7.76502V8.342H6.11702V11.116H7.85702V12.391H4.71702V3.19ZM8.53302 3.19H10.731C11.869 3.19 12.431 3.754 12.431 4.898V7.343C12.431 8.487 11.869 9.053 10.731 9.053H9.93202V12.391H8.53202L8.53302 3.19ZM13.063 3.19H14.463V12.391H13.063V3.19ZM9.93302 4.425V7.817H10.508C10.862 7.817 11.031 7.646 11.031 7.277V4.965C11.031 4.597 10.861 4.425 10.508 4.425H9.93302ZM6.19302 14.572C6.39485 14.5728 6.59495 14.6094 6.78402 14.68C6.96274 14.7519 7.12831 14.853 7.27402 14.979L6.82202 15.525C6.72946 15.4453 6.62568 15.3796 6.51402 15.33C6.39894 15.2828 6.2754 15.2596 6.15102 15.262C6.05441 15.2612 5.95882 15.2817 5.87102 15.322C5.78628 15.3609 5.71014 15.4163 5.64702 15.485C5.58219 15.556 5.531 15.6384 5.49602 15.728C5.45838 15.8232 5.43937 15.9247 5.44002 16.027V16.035C5.43926 16.1409 5.45825 16.246 5.49602 16.345C5.53061 16.4368 5.5841 16.5202 5.65302 16.59C5.7211 16.6584 5.80196 16.7128 5.89102 16.75C5.98711 16.7895 6.09015 16.8092 6.19402 16.808C6.35057 16.8143 6.50547 16.7739 6.63902 16.692V16.353H6.09102V15.788H7.37002V17.043C7.21183 17.1712 7.03517 17.2747 6.84602 17.35C6.62857 17.4352 6.39653 17.477 6.16302 17.473C5.95742 17.4753 5.75322 17.439 5.56102 17.366C5.38369 17.298 5.22133 17.1961 5.08302 17.066C4.9471 16.9376 4.83889 16.7828 4.76502 16.611C4.68692 16.4277 4.64776 16.2302 4.65002 16.031V16.023C4.64817 15.8273 4.68663 15.6332 4.76302 15.453C4.83636 15.281 4.94231 15.1248 5.07502 14.993C5.21066 14.8592 5.37187 14.7541 5.54902 14.684C5.73928 14.6086 5.94238 14.5709 6.14702 14.573C6.16202 14.5728 6.17702 14.5728 6.19202 14.573L6.19302 14.572ZM18.156 14.58C18.3637 14.5795 18.5701 14.6112 18.768 14.674C18.9523 14.735 19.1241 14.8289 19.275 14.951L18.889 15.497C18.7694 15.4106 18.6381 15.3416 18.499 15.292C18.3745 15.247 18.2434 15.2234 18.111 15.222C18.0379 15.2169 17.9651 15.2351 17.903 15.274C17.8818 15.2878 17.8643 15.3066 17.8521 15.3287C17.8399 15.3509 17.8334 15.3757 17.833 15.401V15.409C17.8324 15.4385 17.84 15.4676 17.855 15.493C17.8742 15.5212 17.9004 15.5439 17.931 15.559C17.978 15.5836 18.0272 15.6037 18.078 15.619C18.14 15.639 18.218 15.659 18.314 15.68C18.4599 15.7112 18.6035 15.7519 18.744 15.802C18.8609 15.8427 18.9714 15.8999 19.072 15.972C19.159 16.0345 19.23 16.1168 19.279 16.212C19.3289 16.3172 19.3532 16.4326 19.35 16.549V16.557C19.3525 16.6888 19.3248 16.8195 19.269 16.939C19.2151 17.05 19.1368 17.1474 19.04 17.224C18.9351 17.3062 18.8152 17.3674 18.687 17.404C18.5374 17.4465 18.3825 17.467 18.227 17.465C17.9855 17.4663 17.7455 17.4271 17.517 17.349C17.2981 17.2747 17.0964 17.1571 16.924 17.003L17.354 16.489C17.631 16.712 17.932 16.824 18.254 16.824C18.3357 16.8288 18.4173 16.8115 18.49 16.774C18.5154 16.7602 18.5366 16.7396 18.551 16.7146C18.5655 16.6895 18.5728 16.6609 18.572 16.632V16.624C18.5724 16.597 18.5655 16.5704 18.552 16.547C18.5334 16.5194 18.5084 16.4967 18.479 16.481C18.4336 16.4554 18.3857 16.4347 18.336 16.419C18.2594 16.3945 18.1817 16.3738 18.103 16.357C17.9638 16.3252 17.826 16.2875 17.69 16.244C17.5725 16.2071 17.4609 16.1532 17.359 16.084C17.2673 16.0212 17.1913 15.9381 17.137 15.841C17.0793 15.73 17.0511 15.606 17.055 15.481V15.473C17.0537 15.3494 17.0789 15.227 17.129 15.114C17.1781 15.0047 17.2513 14.908 17.343 14.831C17.4433 14.7479 17.5588 14.6851 17.683 14.646C17.8279 14.6002 17.9791 14.5779 18.131 14.58C18.1394 14.5799 18.1477 14.5799 18.156 14.58ZM8.79802 14.605H9.54002L10.723 17.415H9.89802L9.69502 16.916H8.62302L8.42502 17.414H7.61502L8.79802 14.605ZM10.995 14.625H11.809L12.472 15.705L13.135 14.625H13.949V17.415H13.183V15.813L12.472 16.904H12.456L11.749 15.821V17.414H10.995V14.625ZM14.464 14.625H16.699V15.283H15.226V15.705H16.56V16.315H15.226V16.757H16.719V17.415H14.464V14.625ZM9.16402 15.522L8.84902 16.315H9.47302L9.16402 15.522ZM8.01902 20.712H16.033L11.943 22.06L8.01902 20.712Z" fill="white"/>
</g>
<defs>
<clipPath id="clip0_74_26">
<rect width="24" height="24" fill="white"/>
</clipPath>
</defs>
</svg>
