<svg width="24" height="24" viewBox="0 0 24 24" fill="none" xmlns="http://www.w3.org/2000/svg">
<g clip-path="url(#clip0_74_44)">
<path d="M9.101 23.691V15.711H6.627V12.044H9.101V10.464C9.101 6.379 10.949 4.486 14.959 4.486C15.36 4.486 15.914 4.528 16.427 4.589C16.8112 4.62854 17.1924 4.69368 17.568 4.784V8.109C17.3509 8.08875 17.133 8.07674 16.915 8.073C16.6707 8.06666 16.4264 8.06366 16.182 8.064C15.475 8.064 14.923 8.16 14.507 8.373C14.2273 8.51331 13.9922 8.72868 13.828 8.995C13.57 9.415 13.454 9.99 13.454 10.747V12.044H17.373L16.987 14.147L16.7 15.711H13.454V23.956C19.396 23.238 24 18.179 24 12.044C24 5.417 18.627 0.0439987 12 0.0439987C5.373 0.0439987 0 5.417 0 12.044C0 17.672 3.874 22.394 9.101 23.691Z" fill="white"/>
</g>
<defs>
<clipPath id="clip0_74_44">
<rect width="24" height="24" fill="white"/>
</clipPath>
</defs>
</svg>
