<svg width="24" height="24" viewBox="0 0 24 24" fill="none" xmlns="http://www.w3.org/2000/svg">
<path d="M3.13 1.33801C2.08 1.96001 0.02 4.32801 0 4.95001V5.98001C0 7.28301 1.22 8.43001 2.325 8.43001C3.655 8.43001 4.761 7.32801 4.761 6.02001C4.761 7.32801 5.831 8.43001 7.161 8.43001C8.489 8.43001 9.523 7.32801 9.523 6.02001C9.523 7.32801 10.66 8.43001 11.989 8.43001H12.013C13.343 8.43001 14.479 7.32801 14.479 6.02001C14.479 7.32801 15.513 8.43001 16.842 8.43001C18.172 8.43001 19.242 7.32801 19.242 6.02001C19.242 7.32801 20.348 8.43001 21.677 8.43001C22.78 8.43001 24 7.28201 24 5.98001V4.95001C23.98 4.33001 21.918 1.96001 20.87 1.33801C17.617 1.22401 15.362 1.20401 12 1.20501C8.638 1.20501 4.055 1.25801 3.13 1.33801ZM9.506 7.81501C9.37882 8.0365 9.2213 8.23913 9.038 8.41701C8.538 8.90701 7.848 9.21201 7.091 9.21201C6.36202 9.21233 5.66196 8.92692 5.141 8.41701C4.959 8.23901 4.821 8.04701 4.695 7.82701C4.568 8.04901 4.392 8.23901 4.209 8.41701C3.68792 8.92673 2.98793 9.21211 2.259 9.21201C2.167 9.21201 2.072 9.18701 1.995 9.16001C1.888 10.273 1.843 11.336 1.827 12.11V12.115L1.821 13.282C1.841 15.616 1.591 20.846 2.851 22.132C4.803 22.586 8.396 22.794 12.001 22.795C15.606 22.795 19.199 22.585 21.151 22.131C22.411 20.847 22.161 15.617 22.181 13.283L22.175 12.116V12.112C22.159 11.337 22.115 10.274 22.007 9.16201C21.93 9.18801 21.835 9.21401 21.744 9.21401C21.0151 9.21411 20.3151 8.92873 19.794 8.41901C19.61 8.24101 19.434 8.05101 19.308 7.82901C19.181 8.04901 19.043 8.24101 18.861 8.41901C18.3399 8.92855 17.6398 9.21359 16.911 9.21301C16.151 9.21301 15.465 8.91001 14.963 8.42001C14.7797 8.24213 14.6222 8.0395 14.495 7.81801C14.3694 8.03921 14.2135 8.24182 14.032 8.42001C13.5108 8.92946 12.8108 9.21449 12.082 9.21401H11.922C11.1933 9.21475 10.4933 8.93009 9.972 8.42101C9.7901 8.24289 9.63393 8.04027 9.508 7.81901L9.506 7.81501ZM7.502 10.407C8.297 10.409 9.002 10.407 9.875 11.36C10.562 11.288 11.281 11.252 12 11.253C12.72 11.253 13.438 11.288 14.125 11.36C14.998 10.407 15.703 10.41 16.497 10.407C16.873 10.407 18.373 10.407 19.417 13.341L20.54 17.369C21.372 20.364 20.274 20.437 18.904 20.439C16.874 20.364 15.748 18.889 15.748 17.414C14.624 17.598 13.312 17.69 12 17.691C10.688 17.691 9.376 17.598 8.252 17.414C8.252 18.889 7.127 20.364 5.096 20.44C3.726 20.436 2.628 20.363 3.46 17.368L4.582 13.341C5.627 10.407 7.127 10.407 7.502 10.407ZM12 12.714C11.998 12.716 9.86 14.678 9.477 15.376L10.877 15.32V16.54C10.877 16.596 11.437 16.573 12 16.547C12.562 16.573 13.124 16.597 13.124 16.539V15.319L14.524 15.374C14.138 14.677 12 12.714 12 12.714Z" fill="white"/>
</svg>
