<svg width="24" height="24" viewBox="0 0 24 24" fill="none" xmlns="http://www.w3.org/2000/svg">
<g clip-path="url(#clip0_74_12)">
<path d="M1.91201 0L3.12401 2.474V21.527L1.91201 24H16.642L17.979 19.318H8.33001V0H1.91201ZM12 1.516C11.087 1.516 10.202 1.628 9.35201 1.828V3.568C10.2136 3.32418 11.1046 3.20034 12 3.2C17.267 3.2 21.536 7.384 21.536 12.548C21.5359 14.789 20.7181 16.953 19.236 18.634L18.963 19.588L18.361 21.7C21.313 19.707 23.251 16.365 23.251 12.578C23.25 6.468 18.213 1.516 12 1.516ZM12 4.189C11.076 4.189 10.186 4.337 9.35201 4.603V18.316H18.169C19.6799 16.7761 20.5272 14.7054 20.529 12.548C20.529 7.931 16.711 4.189 12 4.189ZM2.10401 7.312C1.21369 8.9235 0.74776 10.7349 0.750008 12.576C0.750008 14.482 1.24201 16.276 2.10501 17.842L2.10401 7.312Z" fill="white"/>
</g>
<defs>
<clipPath id="clip0_74_12">
<rect width="24" height="24" fill="white"/>
</clipPath>
</defs>
</svg>
