<svg width="24" height="24" viewBox="0 0 24 24" fill="none" xmlns="http://www.w3.org/2000/svg">
<path d="M8.273 7.247V15.67L6.17 15.667V10.451L4.14 12.855L2.151 10.397L2.131 15.682H0.001L0 7.247H2.203L4.068 9.792L6.083 7.246L8.273 7.247ZM16.901 9.316L16.926 15.651H14.561L14.553 12.78H11.753C11.823 13.279 11.963 14.046 12.17 14.559C12.325 14.94 12.468 15.31 12.753 15.687L11.048 16.812C10.699 16.176 10.426 15.475 10.17 14.73C9.9139 14.0267 9.74366 13.2951 9.663 12.551C9.578 11.801 9.566 11.08 9.77 10.339C9.97054 9.61875 10.3735 8.97113 10.931 8.473C11.244 8.18 11.68 7.973 12.031 7.786C12.382 7.599 12.774 7.522 13.138 7.427C13.5294 7.33374 13.9277 7.27254 14.329 7.244C14.727 7.21 15.436 7.178 16.719 7.216L17.264 8.965H14.51C13.917 8.973 13.632 8.966 13.169 9.174C12.8016 9.34769 12.4885 9.61821 12.2633 9.9565C12.0382 10.2948 11.9094 10.688 11.891 11.094L14.554 11.127L14.592 9.317H16.901V9.316ZM20.893 7.217V13.844L24 13.876L23.57 15.651H18.763V7.187L20.893 7.217Z" fill="white"/>
</svg>
