<svg width="24" height="24" viewBox="0 0 24 24" fill="none" xmlns="http://www.w3.org/2000/svg">
<g clip-path="url(#clip0_74_22)">
<path d="M12.5879 3.11C13.7775 3.18127 14.9401 3.49395 16.0049 4.029C17.0356 4.54268 17.9551 5.2542 18.7109 6.123C19.4647 6.99345 20.0466 7.99886 20.4259 9.086C20.8202 10.2089 20.9785 11.4011 20.8909 12.588C20.8593 13.2137 20.7563 13.8337 20.5839 14.436C20.4166 15.0247 20.1909 15.5952 19.9099 16.139C19.4775 16.9767 18.9863 17.7827 18.4399 18.551C17.9088 19.3019 17.3197 20.0101 16.6779 20.669C15.4163 21.9651 13.9725 23.0704 12.3919 23.95L12.3549 23.976C12.3216 23.994 12.2837 24.002 12.2459 23.999C12.1838 23.9848 12.128 23.9508 12.0869 23.902C12.0464 23.8535 12.0244 23.7922 12.0249 23.729C12.0249 23.7 12.0289 23.67 12.0369 23.644C12.0451 23.6211 12.0577 23.6001 12.0739 23.582C12.3509 23.189 12.5799 22.776 12.7599 22.347C12.9412 21.9119 13.0649 21.4551 13.1279 20.988C13.1277 20.972 13.1242 20.9562 13.1177 20.9416C13.1111 20.927 13.1017 20.9139 13.0899 20.903C13.0794 20.8908 13.0663 20.8811 13.0517 20.8746C13.037 20.868 13.021 20.8647 13.0049 20.865C12.741 20.8972 12.4757 20.9179 12.2099 20.927C11.944 20.9362 11.6778 20.9238 11.4139 20.89C10.2443 20.8198 9.10047 20.5172 8.04916 19.9998C6.99785 19.4825 6.06018 18.7608 5.29094 17.877C4.53674 17.0069 3.95476 16.0014 3.57594 14.914C3.18201 13.791 3.02372 12.5989 3.11094 11.412C3.14223 10.7864 3.24489 10.1663 3.41694 9.564C3.58219 8.98181 3.80844 8.41869 4.09194 7.884C4.53094 7.02 5.02194 6.208 5.56094 5.448C6.09273 4.69783 6.68111 3.98943 7.32094 3.329C8.58511 2.03543 10.0293 0.931052 11.6089 0.0500017L11.6469 0.0250017C11.6802 0.00554402 11.7186 -0.00318666 11.7569 1.66951e-06C11.8184 0.0149812 11.8735 0.0493394 11.9139 0.0980017C11.9556 0.146215 11.9777 0.208292 11.9759 0.272002C11.9769 0.300488 11.9728 0.328917 11.9639 0.356002C11.9565 0.378715 11.9442 0.399533 11.9279 0.417002C11.6542 0.80288 11.4239 1.21771 11.2409 1.654C11.0609 2.087 10.9409 2.539 10.8749 3.012C10.8749 3.045 10.8869 3.075 10.9109 3.098C10.9218 3.10963 10.935 3.11892 10.9496 3.12528C10.9642 3.13164 10.98 3.13495 10.9959 3.135C11.2579 3.102 11.5229 3.082 11.7909 3.075C12.0629 3.065 12.3269 3.077 12.5889 3.109L12.5879 3.11ZM11.7809 15.477C12.2374 15.5161 12.697 15.4604 13.1309 15.3132C13.5647 15.1661 13.9635 14.9307 14.3019 14.622C15.0219 13.982 15.4119 13.184 15.4779 12.222C15.5167 11.7633 15.4607 11.3016 15.3134 10.8655C15.1662 10.4294 14.9308 10.0283 14.6219 9.687C14.325 9.33673 13.9581 9.05241 13.5448 8.8523C13.1315 8.65218 12.6809 8.5407 12.2219 8.525C11.7635 8.48646 11.3021 8.54246 10.8662 8.68953C10.4303 8.8366 10.0293 9.07161 9.68794 9.38C9.33758 9.67701 9.05308 10.0439 8.85265 10.4572C8.65221 10.8704 8.54026 11.321 8.52394 11.78C8.4853 12.2379 8.54039 12.6988 8.68584 13.1346C8.8313 13.5705 9.06407 13.9721 9.36994 14.315C9.99794 15.04 10.8019 15.43 11.7809 15.477Z" fill="white"/>
</g>
<defs>
<clipPath id="clip0_74_22">
<rect width="24" height="24" fill="white"/>
</clipPath>
</defs>
</svg>
