<svg width="24" height="24" viewBox="0 0 24 24" fill="none" xmlns="http://www.w3.org/2000/svg">
<g clip-path="url(#clip0_74_30)">
<path d="M8.98405 2.596V20.143L12.899 21.404V6.688C12.899 5.998 13.203 5.537 13.693 5.697C14.329 5.877 14.453 6.511 14.453 7.202V13.077C16.894 14.27 18.8151 13.075 18.8151 9.925C18.8151 6.688 17.689 5.25 14.377 4.098C13.07 3.65 10.649 2.912 8.98705 2.596H8.98405ZM13.64 18.837L19.9361 16.562C20.6511 16.304 20.762 15.937 20.182 15.744C19.596 15.552 18.5451 15.605 17.8251 15.867L13.62 17.367V14.98L13.86 14.895C13.86 14.895 15.0611 14.475 16.7731 14.28C18.4691 14.1 20.558 14.31 22.21 14.941C24.058 15.542 24.25 16.413 23.786 17.013C23.321 17.613 22.164 18.049 22.164 18.049L13.62 21.156V18.86L13.64 18.837ZM1.80705 18.6C-0.0929507 18.055 -0.406951 16.932 0.455049 16.28C1.25605 15.694 2.61505 15.228 2.61505 15.228L8.23005 13.215V15.528L4.20505 17C3.50005 17.271 3.38005 17.632 3.96605 17.826C4.55205 18.021 5.60305 17.976 6.30905 17.706L8.24705 17V19.074C8.12705 19.104 7.99105 19.118 7.85705 19.147C5.91805 19.478 3.86105 19.343 1.81905 18.668L1.80705 18.6Z" fill="white"/>
</g>
<defs>
<clipPath id="clip0_74_30">
<rect width="24" height="24" fill="white"/>
</clipPath>
</defs>
</svg>
