<svg width="24" height="24" viewBox="0 0 24 24" fill="none" xmlns="http://www.w3.org/2000/svg">
<g clip-path="url(#clip0_74_40)">
<path d="M12.206 0.793C13.196 0.793 16.553 1.069 18.136 4.614C18.665 5.807 18.539 7.833 18.435 9.461L18.432 9.521C18.42 9.701 18.41 9.866 18.402 10.031C18.477 10.076 18.605 10.121 18.803 10.121C19.103 10.105 19.462 10.001 19.836 9.82C20.001 9.732 20.18 9.716 20.3 9.716C20.482 9.716 20.659 9.745 20.809 9.806C21.259 9.955 21.543 10.285 21.543 10.644C21.558 11.093 21.153 11.483 20.33 11.812C20.241 11.841 20.121 11.887 19.986 11.931C19.536 12.066 18.847 12.291 18.653 12.741C18.563 12.965 18.592 13.265 18.773 13.609L18.788 13.624C18.848 13.76 20.314 17.099 23.579 17.638C23.834 17.682 24.014 17.908 23.999 18.147C23.999 18.222 23.984 18.296 23.954 18.372C23.714 18.941 22.681 19.36 20.808 19.643C20.749 19.734 20.688 20.018 20.644 20.213C20.615 20.392 20.57 20.573 20.51 20.766C20.434 21.037 20.24 21.171 19.955 21.171H19.925C19.79 21.171 19.612 21.14 19.387 21.097C19.027 21.022 18.622 20.962 18.114 20.962C17.814 20.962 17.515 20.977 17.201 21.036C16.601 21.14 16.078 21.5 15.478 21.92C14.625 22.519 13.652 23.208 12.184 23.208C12.124 23.208 12.065 23.193 12.004 23.193H11.855C10.387 23.193 9.42799 22.518 8.57599 21.905C7.97699 21.485 7.46899 21.126 6.86899 21.021C6.55499 20.976 6.23999 20.947 5.94099 20.947C5.40099 20.947 4.98299 21.036 4.66899 21.096C4.45799 21.139 4.27799 21.17 4.12899 21.17C3.75499 21.17 3.60599 20.946 3.54599 20.75C3.48499 20.558 3.45599 20.361 3.41099 20.183C3.36499 20.002 3.30599 19.689 3.24499 19.613C1.32699 19.391 0.294994 18.971 0.0559944 18.387C0.0249944 18.324 0.00399441 18.237 0.000994406 18.162C-0.0140056 17.919 0.165994 17.697 0.420994 17.653C3.68499 17.113 5.15099 13.774 5.21199 13.633L5.22799 13.604C5.40799 13.259 5.45199 12.959 5.34699 12.735C5.15199 12.301 4.46299 12.077 4.01499 11.926C3.89399 11.897 3.77499 11.852 3.66899 11.807C2.56199 11.372 2.41199 10.877 2.47199 10.534C2.56199 10.055 3.14599 9.741 3.63999 9.741C3.78599 9.741 3.90999 9.77 4.02299 9.815C4.44299 10.009 4.81199 10.115 5.12699 10.115C5.36099 10.115 5.51099 10.055 5.59199 10.01L5.54599 9.441C5.44799 7.815 5.32099 5.79 5.85299 4.604C7.39199 1.077 10.739 0.807 11.727 0.807L12.146 0.792L12.206 0.793Z" fill="white"/>
</g>
<defs>
<clipPath id="clip0_74_40">
<rect width="24" height="24" fill="white"/>
</clipPath>
</defs>
</svg>
