<svg width="24" height="24" viewBox="0 0 24 24" fill="none" xmlns="http://www.w3.org/2000/svg">
<g clip-path="url(#clip0_74_54)">
<path d="M12.0049 0.604996H11.9149L11.8869 0.605996H11.8229L11.7929 0.606996L11.7229 0.607996L11.7029 0.608996L11.6129 0.611996H11.5909L11.5209 0.614996L11.4909 0.615996L11.4279 0.618996L11.3999 0.619996L11.3099 0.624996L11.2199 0.630996H11.2049L11.1949 0.631996L11.1309 0.636996L11.1009 0.638996L11.0309 0.643996L11.0109 0.645996L10.9229 0.653996L10.9029 0.654996L10.8329 0.661996L10.8059 0.664996L10.7409 0.670996L10.7159 0.673996L10.6279 0.683996L10.5379 0.693996L10.5149 0.696996L10.4489 0.704996L10.4409 0.706996L10.4259 0.708996H10.4229L10.3499 0.718996L10.3349 0.720996L10.2849 0.727996L10.2449 0.733996L10.2309 0.735996L10.1579 0.745996L10.1339 0.750996L10.0639 0.760996L10.0439 0.764996L9.95594 0.779996L9.92094 0.785996L9.90294 0.789996L9.86794 0.795996L9.84794 0.798996L9.77794 0.811996L9.75794 0.815996L9.67794 0.830996H9.67494L9.67094 0.831996L9.66594 0.832996L9.57894 0.850996L9.57194 0.852996H9.56994L9.53594 0.860996L9.49294 0.870996L9.47494 0.872996L9.39994 0.889996L9.38694 0.892996L9.29694 0.912996L9.20694 0.932996L9.19694 0.935996L9.11694 0.955996L9.10594 0.958996L9.01894 0.980996L8.92694 1.005L8.83894 1.029L8.82894 1.031L8.74494 1.055H8.74194L8.65194 1.081L8.56094 1.108L8.48694 1.131L8.47694 1.134L8.47194 1.136H8.46894L8.44094 1.146C8.37727 1.16561 8.31393 1.18628 8.25094 1.208L8.17094 1.233L7.91394 1.324L7.83894 1.351C7.73647 1.38892 7.63478 1.42893 7.53394 1.471C7.51394 1.478 7.49294 1.485 7.47294 1.494L7.32894 1.554C7.15045 1.6299 6.97373 1.70992 6.79894 1.794L6.72894 1.828L6.64894 1.868C6.47894 1.953 6.30894 2.042 6.14294 2.135C5.98894 2.315 5.83894 2.497 5.69294 2.683L5.63294 2.763L5.59694 2.806L5.60194 2.803C5.56494 2.851 5.52994 2.901 5.49194 2.949C5.41494 3.052 5.33594 3.154 5.26094 3.259C5.20394 3.339 5.14894 3.421 5.09394 3.502C5.01294 3.62 4.93094 3.736 4.85394 3.857C4.79994 3.94 4.74894 4.025 4.69594 4.107C4.62194 4.227 4.54594 4.347 4.47594 4.469C4.42494 4.554 4.37594 4.641 4.32794 4.727C4.25794 4.853 4.18694 4.977 4.11794 5.107C4.07394 5.193 4.02794 5.281 3.98594 5.367C3.92195 5.49251 3.85961 5.61885 3.79894 5.746C3.75394 5.842 3.71094 5.939 3.66694 6.036C3.50996 6.38504 3.36553 6.7396 3.23394 7.099L3.18394 7.227L3.19294 7.215C3.06594 7.572 2.94794 7.932 2.84494 8.299L2.73794 8.348C2.73294 8.34999 2.72794 8.35199 2.72294 8.354C2.5296 8.44365 2.34251 8.54622 2.16294 8.661C2.15124 8.66828 2.13958 8.67561 2.12794 8.68299C1.95568 8.79539 1.79099 8.91899 1.63494 9.053C1.61986 9.06557 1.60486 9.07823 1.58994 9.091C1.43861 9.22404 1.29598 9.36667 1.16294 9.518C1.14816 9.53456 1.13349 9.55122 1.11894 9.568C0.986485 9.72255 0.864227 9.88556 0.752941 10.056C0.744541 10.0693 0.736207 10.0826 0.727941 10.096C0.614921 10.2733 0.514024 10.4581 0.425941 10.649C0.422586 10.657 0.419252 10.665 0.415941 10.673C0.326257 10.8695 0.250406 11.072 0.188941 11.279C0.187935 11.2833 0.186935 11.2877 0.185941 11.292C0.125941 11.5 0.0779412 11.712 0.0459412 11.932C0.0459376 11.9353 0.0459376 11.9387 0.0459412 11.942C-0.0159648 12.3791 -0.0159648 12.8228 0.0459412 13.26C0.0459376 13.2633 0.0459376 13.2667 0.0459412 13.27C0.0779412 13.488 0.125941 13.702 0.185941 13.91C0.187267 13.9147 0.188601 13.9193 0.189941 13.924C0.250941 14.132 0.326941 14.334 0.415941 14.529C0.419252 14.537 0.422586 14.545 0.425941 14.553C0.515941 14.745 0.615941 14.93 0.728941 15.107C0.73688 15.1197 0.74488 15.1324 0.752941 15.145C0.864941 15.317 0.987941 15.481 1.12094 15.635C1.1345 15.6514 1.14816 15.6678 1.16194 15.684C1.29494 15.834 1.43694 15.977 1.58794 16.11C1.60385 16.1234 1.61985 16.1368 1.63594 16.15C1.79094 16.284 1.95394 16.406 2.12594 16.517C2.13923 16.5261 2.15256 16.5351 2.16594 16.544C2.34394 16.657 2.52994 16.759 2.72294 16.848C2.72794 16.85 2.73294 16.852 2.73794 16.854C2.93494 16.944 3.13794 17.02 3.34794 17.082C3.3536 17.0837 3.35927 17.0853 3.36494 17.087C3.57194 17.147 3.78494 17.194 4.00194 17.225C4.00594 17.2257 4.00994 17.2263 4.01394 17.227C4.45011 17.2886 4.89278 17.2886 5.32894 17.227C5.33294 17.2263 5.33694 17.2257 5.34094 17.225C5.55894 17.194 5.77094 17.147 5.97794 17.087C5.98361 17.0853 5.98928 17.0837 5.99494 17.082C6.20297 17.0206 6.40646 16.9447 6.60394 16.855C6.60961 16.8523 6.61528 16.8497 6.62094 16.847C6.81294 16.757 6.99894 16.657 7.17594 16.544C7.18999 16.5351 7.20399 16.5261 7.21794 16.517C7.38794 16.406 7.55294 16.283 7.70794 16.151C7.72303 16.1378 7.73803 16.1244 7.75294 16.111C7.90494 15.978 8.04794 15.834 8.18194 15.681C8.19503 15.6664 8.20803 15.6517 8.22094 15.637C8.35494 15.481 8.47794 15.317 8.59094 15.144C8.59766 15.1324 8.60432 15.1207 8.61094 15.109C8.72561 14.9306 8.82785 14.7445 8.91694 14.552C8.92029 14.545 8.92363 14.538 8.92694 14.531C9.01594 14.334 9.09194 14.131 9.15394 13.921C9.15461 13.9183 9.15528 13.9157 9.15594 13.913C9.21594 13.705 9.26394 13.492 9.29594 13.273C9.29595 13.2663 9.29595 13.2597 9.29594 13.253C9.33687 12.9612 9.35026 12.6663 9.33594 12.372C9.33594 12.3713 9.33594 12.3707 9.33594 12.37C9.33594 12.32 9.33094 12.272 9.32594 12.223C9.3242 12.1946 9.3222 12.1663 9.31994 12.138C9.31259 12.0638 9.30326 11.9897 9.29194 11.916C9.29194 11.9143 9.29194 11.9127 9.29194 11.911C9.23644 11.5338 9.13432 11.165 8.98794 10.813C8.98794 10.8133 8.98794 10.8127 8.98794 10.813C8.95794 10.743 8.92694 10.672 8.89394 10.602C8.89327 10.601 8.89261 10.6 8.89194 10.599C8.8654 10.5434 8.83773 10.4884 8.80894 10.434C8.80234 10.4206 8.79567 10.4073 8.78894 10.394L8.71894 10.271C8.70257 10.2425 8.68591 10.2142 8.66894 10.186L8.63194 10.126C8.60374 10.0798 8.57473 10.0342 8.54494 9.989L8.53294 9.973C8.16685 9.43485 7.69239 8.97912 7.13994 8.635C7.12194 8.624 7.10494 8.612 7.08694 8.602C7.05516 8.58328 7.02316 8.56495 6.99094 8.547C6.95494 8.526 6.91894 8.504 6.88094 8.484C6.86631 8.47659 6.85165 8.46925 6.83694 8.462C6.40799 8.2368 5.94638 8.08023 5.46894 7.998C6.18083 6.01586 7.34099 4.22496 8.85894 2.765C9.87603 2.43848 10.9377 2.27216 12.0059 2.272C17.7059 2.272 22.3349 6.901 22.3359 12.601V12.603C22.3359 14.733 21.6889 16.713 20.5829 18.359L20.5699 18.377C18.4999 21.46 14.6819 23.57 9.50294 23.02L9.52294 23.036C14.7229 24.174 18.8979 22.491 21.4049 19.576L21.3869 19.602C21.4924 19.4803 21.5951 19.3563 21.6949 19.23C21.7129 19.207 21.7299 19.182 21.7489 19.159C21.8429 19.037 21.9349 18.914 22.0239 18.789L22.1239 18.643C22.3047 18.3787 22.4735 18.1064 22.6299 17.827L22.7059 17.694C22.8789 17.374 23.0349 17.047 23.1749 16.713L23.2369 16.555C23.355 16.2595 23.4597 15.9589 23.5509 15.654C23.5669 15.601 23.5839 15.549 23.5979 15.497C23.6482 15.3226 23.6935 15.1469 23.7339 14.97L23.7369 14.952C23.7759 14.782 23.8089 14.609 23.8399 14.436L23.8649 14.276C23.9152 13.9611 23.9512 13.6441 23.9729 13.326C23.9769 13.266 23.9829 13.208 23.9849 13.149C23.9939 12.968 23.9999 12.786 23.9999 12.604C24.0009 5.982 18.6259 0.604996 12.0049 0.604996ZM12.2369 3.882C13.5999 5.255 14.3719 7.087 14.6469 9.111C14.7509 9.876 14.6009 10.721 13.8769 11.241C13.8189 11.574 13.9919 11.937 14.1439 12.296C14.5319 13.216 15.1239 14.053 15.5519 14.938C15.9359 15.736 14.9199 16.326 14.1779 16.568C14.0869 16.5981 13.9952 16.6261 13.9029 16.652C13.9509 17.035 14.1769 17.322 14.1179 17.655C14.0728 17.8943 13.9402 18.1082 13.7459 18.255C13.7459 18.255 14.0259 19.133 13.3659 19.515C13.2139 19.602 13.0359 19.619 13.0019 19.855C12.9379 20.323 12.8679 20.781 12.4979 21.162C12.4419 21.219 12.3829 21.272 12.3209 21.321C16.6469 21.169 20.2909 17.814 20.6929 13.391C21.1279 8.59699 17.5889 4.351 12.7929 3.915C12.608 3.89784 12.4226 3.8875 12.2369 3.882ZM10.2639 4.052C9.5714 4.1936 8.89875 4.41927 8.26094 4.724C8.64894 4.858 8.99694 5.04 9.23094 5.258C10.3209 6.268 10.8599 7.261 11.1609 8.641C11.4279 9.859 11.5559 10.45 10.9159 10.894C10.0509 11.494 11.8389 14.058 12.1879 14.8C11.7279 15.392 11.1259 15.379 10.8079 15.543C10.6319 15.633 10.7049 15.969 10.7339 16.228C10.7619 16.482 10.9939 16.641 10.8669 16.838C10.7529 17.013 10.3169 17.026 10.1299 17.148C10.3119 17.348 10.7149 17.547 10.6599 17.806C10.6199 18.006 10.1679 17.972 9.99394 18.428C9.90094 18.673 9.94894 19.126 9.75594 19.355C9.30794 19.885 8.83894 19.975 7.90594 19.872C7.60212 19.8384 7.29933 19.796 6.99794 19.745C7.69211 20.2335 8.45469 20.6166 9.26094 20.882C9.51094 20.964 9.77794 20.992 10.0409 20.964C10.5329 20.918 10.8749 20.738 11.2069 20.344C11.4269 20.084 11.3719 19.568 11.4769 19.29C11.6759 18.77 12.1899 18.812 12.2369 18.584C12.2969 18.288 11.8389 18.061 11.6329 17.834C11.8469 17.696 12.3399 17.681 12.4709 17.481C12.6159 17.258 12.3509 17.077 12.3189 16.788C12.2869 16.494 12.2039 16.112 12.4039 16.008C12.7639 15.822 13.4489 15.836 13.9729 15.164C13.5759 14.32 11.5429 11.404 12.5259 10.722C13.2539 10.216 13.1089 9.545 12.8059 8.159C12.4619 6.589 11.8489 5.461 10.6109 4.312C10.5041 4.21418 10.3878 4.1271 10.2639 4.052Z" fill="white"/>
</g>
<defs>
<clipPath id="clip0_74_54">
<rect width="24" height="24" fill="white"/>
</clipPath>
</defs>
</svg>
