<svg width="24" height="24" viewBox="0 0 24 24" fill="none" xmlns="http://www.w3.org/2000/svg">
<g clip-path="url(#clip0_74_20)">
<path d="M23.561 11.988C23.301 -0.304 6.95396 -4.89 0.655965 6.634C0.937965 6.84 1.31696 7.111 1.59896 7.306C1.13445 8.27871 0.80604 9.31073 0.622965 10.373C0.50125 11.0566 0.439681 11.7496 0.438965 12.444C0.438965 18.818 5.62097 24 12.005 24C18.39 24 23.561 18.83 23.561 12.444V11.989V11.988ZM3.29096 14.048C3.13896 15.294 3.23696 15.684 3.23696 15.836L2.95496 15.934C2.84696 15.728 2.58496 15.002 2.46696 14.026C2.16296 10.308 4.69996 6.96 8.56996 6.33C12.114 5.81 15.507 8.01 16.298 11.088L16.016 11.186C15.929 11.099 15.788 10.85 15.246 10.308C10.965 6.027 4.24496 7.988 3.29096 14.048ZM14.293 16.129C14.0032 16.5476 13.6161 16.8897 13.1649 17.1257C12.7138 17.3617 12.2121 17.4847 11.703 17.484C11.2885 17.4847 10.8779 17.4035 10.4948 17.2452C10.1117 17.0869 9.76367 16.8545 9.47057 16.5614C9.17747 16.2683 8.9451 15.9202 8.78678 15.5371C8.62846 15.1541 8.54731 14.7435 8.54797 14.329C8.5496 13.5325 8.85208 12.7659 9.39484 12.1829C9.9376 11.5999 10.6806 11.2435 11.475 11.185C12.493 11.142 13.447 11.695 13.891 12.583C14.1302 13.0612 14.2149 13.602 14.1334 14.1305C14.0519 14.659 13.8082 15.1491 13.436 15.533C13.729 15.738 14.011 15.933 14.292 16.128L14.293 16.129ZM20.873 16.249C19.204 20.031 15.767 22.015 12.103 21.961C5.06896 21.614 3.01996 13.495 7.72296 10.568L7.92996 10.774C7.85396 10.882 7.57196 11.099 7.13896 11.956C6.62896 12.997 6.46696 14.037 6.53196 14.688C6.90096 20.358 14.846 21.518 17.577 15.902C21.057 8.217 11.822 0.401 3.62596 6.374L3.44196 6.19C5.59896 2.808 9.81596 1.3 13.837 2.309C19.984 3.859 23.291 10.265 20.873 16.249Z" fill="white"/>
</g>
<defs>
<clipPath id="clip0_74_20">
<rect width="24" height="24" fill="white"/>
</clipPath>
</defs>
</svg>
