<svg width="24" height="24" viewBox="0 0 24 24" fill="none" xmlns="http://www.w3.org/2000/svg">
<g clip-path="url(#clip0_74_14)">
<path d="M23.792 2.152C23.7527 2.17074 23.7189 2.19933 23.694 2.235C20.31 6.465 16.925 10.695 13.544 14.925C13.437 15.018 13.519 15.213 13.663 15.19C16.102 15.193 18.54 15.19 20.979 15.191C21.0843 15.1964 21.1893 15.1766 21.2854 15.1331C21.3814 15.0896 21.4656 15.0237 21.531 14.941C22.305 13.974 23.081 13.007 23.855 12.038C23.9612 11.8977 24.0125 11.7234 23.999 11.548C23.997 8.471 23.999 5.395 23.996 2.318C24.012 2.208 23.896 2.113 23.792 2.152ZM0.0769766 2.166C-2.34395e-05 2.204 0.00297656 2.298 0.000976562 2.371C0.00297656 5.445 0.00197656 8.521 0.00197656 11.596C-0.00471594 11.7646 0.0516098 11.9297 0.159977 12.059L7.79998 21.609C7.91998 21.761 8.10798 21.859 8.30498 21.856C10.76 21.856 13.215 21.859 15.67 21.856C15.812 21.876 15.892 21.682 15.786 21.591C10.661 15.176 5.52598 8.766 0.399977 2.35C0.319977 2.256 0.225977 2.078 0.0779766 2.166H0.0769766Z" fill="white"/>
</g>
<defs>
<clipPath id="clip0_74_14">
<rect width="24" height="24" fill="white"/>
</clipPath>
</defs>
</svg>
