<svg width="24" height="24" viewBox="0 0 24 24" fill="none" xmlns="http://www.w3.org/2000/svg">
<g clip-path="url(#clip0_74_32)">
<path d="M4.102 21.033C6.211 22.881 8.977 24 12 24C15.026 24 17.789 22.881 19.902 21.033C21.779 19.121 15.586 12.324 12 9.616C8.418 12.324 2.221 19.121 4.102 21.033ZM15.262 6.627C17.762 9.588 22.746 16.94 21.338 19.539C23.002 17.48 24 14.861 24 12.004C24 8.664 22.635 5.642 20.43 3.468C20.43 3.468 20.403 3.446 20.348 3.426C20.285 3.404 20.196 3.381 20.067 3.381C19.475 3.381 18.082 3.815 15.262 6.627ZM3.654 3.426C3.597 3.446 3.572 3.467 3.568 3.468C1.365 5.642 0 8.664 0 12.004C0 14.858 0.998 17.477 2.661 19.537C1.26 16.932 6.24 9.586 8.741 6.627C5.921 3.814 4.525 3.382 3.935 3.382C3.804 3.382 3.712 3.403 3.654 3.428V3.426ZM12 3.551C12 3.551 9.055 1.828 6.755 1.746C5.852 1.713 5.301 2.041 5.234 2.085C7.379 0.646 9.659 0 11.984 0H12C14.334 0 16.605 0.646 18.766 2.085C18.698 2.039 18.151 1.713 17.246 1.746C14.946 1.828 12 3.545 12 3.545V3.551Z" fill="white"/>
</g>
<defs>
<clipPath id="clip0_74_32">
<rect width="24" height="24" fill="white"/>
</clipPath>
</defs>
</svg>
